<svg xmlns="http://www.w3.org/2000/svg" viewBox="0 0 1120 960">
  <defs>
    <style>
      @import url('https://fonts.googleapis.com/css2?family=JetBrains+Mono:wght@400;500;600;700&amp;family=Noto+Sans+SC:wght@400;500;600;700&amp;display=swap');
      text { font-family: 'JetBrains Mono', 'Noto Sans SC', 'PingFang SC', 'Microsoft YaHei', sans-serif; }
    </style>
    <pattern id="grid" width="40" height="40" patternUnits="userSpaceOnUse">
      <path d="M 40 0 L 0 0 0 40" fill="none" stroke="#1e293b" stroke-width="0.5"/>
    </pattern>
    <marker id="arrow" markerWidth="10" markerHeight="7" refX="9" refY="3.5" orient="auto">
      <polygon points="0 0, 10 3.5, 0 7" fill="#64748b"/>
    </marker>
    <marker id="arrow-cyan" markerWidth="10" markerHeight="7" refX="9" refY="3.5" orient="auto">
      <polygon points="0 0, 10 3.5, 0 7" fill="#22d3ee"/>
    </marker>
    <marker id="arrow-emerald" markerWidth="10" markerHeight="7" refX="9" refY="3.5" orient="auto">
      <polygon points="0 0, 10 3.5, 0 7" fill="#34d399"/>
    </marker>
    <marker id="arrow-violet" markerWidth="10" markerHeight="7" refX="9" refY="3.5" orient="auto">
      <polygon points="0 0, 10 3.5, 0 7" fill="#a78bfa"/>
    </marker>
    <marker id="arrow-amber" markerWidth="10" markerHeight="7" refX="9" refY="3.5" orient="auto">
      <polygon points="0 0, 10 3.5, 0 7" fill="#fbbf24"/>
    </marker>
    <marker id="arrow-rose" markerWidth="10" markerHeight="7" refX="9" refY="3.5" orient="auto">
      <polygon points="0 0, 10 3.5, 0 7" fill="#fb7185"/>
    </marker>
  </defs>

  <!-- Background -->
  <rect width="100%" height="100%" fill="#0f172a"/>
  <rect width="100%" height="100%" fill="url(#grid)"/>

  <!-- ==================== Title ==================== -->
  <text x="560" y="28" fill="white" font-size="17" font-weight="700" text-anchor="middle">PanHub 系统架构图</text>
  <text x="560" y="46" fill="#94a3b8" font-size="9" text-anchor="middle">Nuxt 4 · Telegram Channel Aggregator · Multi-Source Cloud Drive Search Engine</text>

  <!-- ==================== Layer 1: Browser ==================== -->
  <rect x="395" y="60" width="330" height="48" rx="6" fill="#0f172a"/>
  <rect x="395" y="60" width="330" height="48" rx="6" fill="rgba(8,51,68,0.4)" stroke="#22d3ee" stroke-width="1.5"/>
  <text x="560" y="82" fill="white" font-size="12" font-weight="600" text-anchor="middle">用户浏览器</text>
  <text x="560" y="98" fill="#94a3b8" font-size="9" text-anchor="middle">Browser · Vue 3 SPA</text>

  <!-- Arrow: Browser → Client -->
  <line x1="560" y1="108" x2="560" y2="138" stroke="#22d3ee" stroke-width="1.5" marker-end="url(#arrow-cyan)"/>

  <!-- ==================== Layer 2: Client Layer ==================== -->
  <rect x="55" y="133" width="1010" height="82" rx="12" fill="none" stroke="#22d3ee" stroke-width="1" stroke-dasharray="8,4"/>
  <text x="70" y="149" fill="#22d3ee" font-size="9" font-weight="600">Client Layer 客户端</text>

  <!-- Composables -->
  <rect x="75" y="155" width="290" height="48" rx="6" fill="#0f172a"/>
  <rect x="75" y="155" width="290" height="48" rx="6" fill="rgba(8,51,68,0.4)" stroke="#22d3ee" stroke-width="1"/>
  <text x="220" y="175" fill="white" font-size="11" font-weight="600" text-anchor="middle">Composables</text>
  <text x="220" y="193" fill="#94a3b8" font-size="9" text-anchor="middle">useSearch · useSettings · useAuth</text>

  <!-- UI Components -->
  <rect x="395" y="155" width="280" height="48" rx="6" fill="#0f172a"/>
  <rect x="395" y="155" width="280" height="48" rx="6" fill="rgba(8,51,68,0.4)" stroke="#22d3ee" stroke-width="1"/>
  <text x="535" y="175" fill="white" font-size="11" font-weight="600" text-anchor="middle">UI Components</text>
  <text x="535" y="193" fill="#94a3b8" font-size="9" text-anchor="middle">SearchBox · ResultGroup · HotSearch</text>

  <!-- Search State Machine -->
  <rect x="705" y="155" width="340" height="48" rx="6" fill="#0f172a"/>
  <rect x="705" y="155" width="340" height="48" rx="6" fill="rgba(8,51,68,0.4)" stroke="#22d3ee" stroke-width="1"/>
  <text x="875" y="175" fill="white" font-size="11" font-weight="600" text-anchor="middle">Search State Machine</text>
  <text x="875" y="193" fill="#94a3b8" font-size="9" text-anchor="middle">Fast → Deep · Pause/Resume · p-limit</text>

  <!-- Arrow: Client → API -->
  <line x1="560" y1="215" x2="560" y2="255" stroke="#34d399" stroke-width="1.5" marker-end="url(#arrow-emerald)"/>
  <text x="580" y="240" fill="#64748b" font-size="8">HTTP /api/search</text>

  <!-- ==================== Nuxt Server Region ==================== -->
  <rect x="38" y="250" width="1044" height="418" rx="14" fill="none" stroke="#34d399" stroke-width="1.2" stroke-dasharray="12,4"/>
  <text x="55" y="267" fill="#34d399" font-size="9" font-weight="600">Nuxt 4 Server (Nitro Engine)</text>

  <!-- ==================== Layer 3: API Routes ==================== -->
  <!-- /api/search -->
  <rect x="58" y="280" width="170" height="42" rx="6" fill="#0f172a"/>
  <rect x="58" y="280" width="170" height="42" rx="6" fill="rgba(6,78,59,0.4)" stroke="#34d399" stroke-width="1"/>
  <text x="143" y="298" fill="white" font-size="10" font-weight="600" text-anchor="middle">/api/search</text>
  <text x="143" y="314" fill="#94a3b8" font-size="8" text-anchor="middle">GET · POST</text>

  <!-- /api/hot-searches -->
  <rect x="243" y="280" width="195" height="42" rx="6" fill="#0f172a"/>
  <rect x="243" y="280" width="195" height="42" rx="6" fill="rgba(6,78,59,0.4)" stroke="#34d399" stroke-width="1"/>
  <text x="340" y="298" fill="white" font-size="10" font-weight="600" text-anchor="middle">/api/hot-searches</text>
  <text x="340" y="314" fill="#94a3b8" font-size="8" text-anchor="middle">GET · POST</text>

  <!-- /api/auth -->
  <rect x="453" y="280" width="145" height="42" rx="6" fill="#0f172a"/>
  <rect x="453" y="280" width="145" height="42" rx="6" fill="rgba(136,19,55,0.3)" stroke="#fb7185" stroke-width="1"/>
  <text x="525" y="298" fill="white" font-size="10" font-weight="600" text-anchor="middle">/api/auth</text>
  <text x="525" y="314" fill="#94a3b8" font-size="8" text-anchor="middle">HMAC Cookie</text>

  <!-- /api/douban-hot -->
  <rect x="613" y="280" width="170" height="42" rx="6" fill="#0f172a"/>
  <rect x="613" y="280" width="170" height="42" rx="6" fill="rgba(6,78,59,0.4)" stroke="#34d399" stroke-width="1"/>
  <text x="698" y="298" fill="white" font-size="10" font-weight="600" text-anchor="middle">/api/douban-hot</text>
  <text x="698" y="314" fill="#94a3b8" font-size="8" text-anchor="middle">GET</text>

  <!-- /api/health + /api/img -->
  <rect x="798" y="280" width="262" height="42" rx="6" fill="#0f172a"/>
  <rect x="798" y="280" width="262" height="42" rx="6" fill="rgba(6,78,59,0.4)" stroke="#34d399" stroke-width="1"/>
  <text x="929" y="298" fill="white" font-size="10" font-weight="600" text-anchor="middle">/api/health · /api/plugin-health</text>
  <text x="929" y="314" fill="#94a3b8" font-size="8" text-anchor="middle">/api/img (proxy)</text>

  <!-- Auth middleware annotation -->
  <rect x="445" y="328" width="160" height="20" rx="4" fill="rgba(136,19,55,0.2)" stroke="#fb7185" stroke-width="0.8" stroke-dasharray="4,2"/>
  <text x="525" y="342" fill="#fb7185" font-size="8" font-weight="500" text-anchor="middle">requireSearchAuth 中间件</text>

  <!-- Arrow: API → SearchService -->
  <line x1="340" y1="322" x2="340" y2="370" stroke="#34d399" stroke-width="1" stroke-opacity="0.5" marker-end="url(#arrow-emerald)"/>
  <line x1="560" y1="322" x2="560" y2="370" stroke="#34d399" stroke-width="1.5" marker-end="url(#arrow-emerald)"/>

  <!-- ==================== Layer 4: SearchService ==================== -->
  <rect x="210" y="370" width="700" height="55" rx="8" fill="#0f172a"/>
  <rect x="210" y="370" width="700" height="55" rx="8" fill="rgba(6,78,59,0.5)" stroke="#34d399" stroke-width="2"/>
  <text x="560" y="392" fill="white" font-size="13" font-weight="700" text-anchor="middle">SearchService 搜索编排器</text>
  <text x="560" y="412" fill="#94a3b8" font-size="9" text-anchor="middle">p-limit 并发控制 · 优先级批处理 · 超时管理 · 去重合并 · 按网盘类型分组</text>

  <!-- Two-tier annotation -->
  <rect x="925" y="378" width="140" height="38" rx="6" fill="rgba(120,53,15,0.3)" stroke="#fbbf24" stroke-width="1"/>
  <text x="995" y="394" fill="#fbbf24" font-size="8" font-weight="600" text-anchor="middle">Two-Tier Search</text>
  <text x="995" y="408" fill="#94a3b8" font-size="8" text-anchor="middle">Fast → Deep 渐进式</text>
  <line x1="910" y1="397" x2="925" y2="397" stroke="#fbbf24" stroke-width="1" stroke-dasharray="4,2"/>

  <!-- Arrows: SearchService → Services -->
  <!-- To TG Service -->
  <path d="M 350 425 L 350 448 L 190 448 L 190 462" fill="none" stroke="#34d399" stroke-width="1.5" marker-end="url(#arrow-emerald)"/>
  <!-- To Plugin Manager -->
  <path d="M 470 425 L 470 448 L 460 448 L 460 462" fill="none" stroke="#34d399" stroke-width="1.5" marker-end="url(#arrow-emerald)"/>
  <!-- To HotSearch -->
  <path d="M 640 425 L 640 448 L 700 448 L 700 462" fill="none" stroke="#34d399" stroke-width="1.5" marker-end="url(#arrow-emerald)"/>
  <!-- To Douban -->
  <path d="M 760 425 L 760 448 L 920 448 L 920 462" fill="none" stroke="#34d399" stroke-width="1.5" marker-end="url(#arrow-emerald)"/>

  <!-- ==================== Layer 5: Services ==================== -->
  <!-- TG Service -->
  <rect x="65" y="462" width="250" height="50" rx="6" fill="#0f172a"/>
  <rect x="65" y="462" width="250" height="50" rx="6" fill="rgba(6,78,59,0.4)" stroke="#34d399" stroke-width="1"/>
  <text x="190" y="482" fill="white" font-size="11" font-weight="600" text-anchor="middle">TG Service</text>
  <text x="190" y="500" fill="#94a3b8" font-size="9" text-anchor="middle">Cheerio HTML 解析 · 分页抓取</text>

  <!-- Plugin Manager -->
  <rect x="340" y="462" width="270" height="50" rx="6" fill="#0f172a"/>
  <rect x="340" y="462" width="270" height="50" rx="6" fill="rgba(6,78,59,0.4)" stroke="#34d399" stroke-width="1"/>
  <text x="475" y="482" fill="white" font-size="11" font-weight="600" text-anchor="middle">Plugin Manager</text>
  <text x="475" y="500" fill="#94a3b8" font-size="9" text-anchor="middle">BaseAsyncPlugin · Global Registry</text>

  <!-- HotSearch Service -->
  <rect x="635" y="462" width="220" height="50" rx="6" fill="#0f172a"/>
  <rect x="635" y="462" width="220" height="50" rx="6" fill="rgba(6,78,59,0.4)" stroke="#34d399" stroke-width="1"/>
  <text x="745" y="482" fill="white" font-size="11" font-weight="600" text-anchor="middle">HotSearch Service</text>
  <text x="745" y="500" fill="#94a3b8" font-size="9" text-anchor="middle">Singleton · 优雅降级</text>

  <!-- Douban Service -->
  <rect x="878" y="462" width="185" height="50" rx="6" fill="#0f172a"/>
  <rect x="878" y="462" width="185" height="50" rx="6" fill="rgba(6,78,59,0.4)" stroke="#34d399" stroke-width="1"/>
  <text x="970" y="482" fill="white" font-size="11" font-weight="600" text-anchor="middle">Douban Service</text>
  <text x="970" y="500" fill="#94a3b8" font-size="9" text-anchor="middle">豆瓣热门榜单</text>

  <!-- Arrows: Services → Infrastructure -->
  <!-- TG → Cache -->
  <path d="M 190 512 L 190 540 L 160 540 L 160 555" fill="none" stroke="#a78bfa" stroke-width="1" stroke-opacity="0.7" marker-end="url(#arrow-violet)"/>
  <!-- Plugin → Cache + Health -->
  <path d="M 420 512 L 420 540 L 380 540 L 380 555" fill="none" stroke="#a78bfa" stroke-width="1" stroke-opacity="0.7" marker-end="url(#arrow-violet)"/>
  <path d="M 530 512 L 530 540 L 575 540 L 575 555" fill="none" stroke="#fb7185" stroke-width="1" stroke-opacity="0.7" marker-end="url(#arrow-rose)"/>
  <!-- HotSearch → Store -->
  <path d="M 745 512 L 745 540 L 790 540 L 790 555" fill="none" stroke="#a78bfa" stroke-width="1" stroke-opacity="0.7" marker-end="url(#arrow-violet)"/>

  <!-- ==================== Layer 6: Infrastructure ==================== -->
  <!-- UnifiedCache -->
  <rect x="58" y="555" width="290" height="50" rx="6" fill="#0f172a"/>
  <rect x="58" y="555" width="290" height="50" rx="6" fill="rgba(76,29,149,0.4)" stroke="#a78bfa" stroke-width="1.5"/>
  <text x="203" y="575" fill="white" font-size="11" font-weight="600" text-anchor="middle">UnifiedCache · MemoryCache</text>
  <text x="203" y="593" fill="#94a3b8" font-size="9" text-anchor="middle">LRU + TTL · Namespaces · 100MB</text>

  <!-- PluginHealth -->
  <rect x="373" y="555" width="240" height="50" rx="6" fill="#0f172a"/>
  <rect x="373" y="555" width="240" height="50" rx="6" fill="rgba(136,19,55,0.3)" stroke="#fb7185" stroke-width="1"/>
  <text x="493" y="575" fill="white" font-size="11" font-weight="600" text-anchor="middle">PluginHealthChecker</text>
  <text x="493" y="593" fill="#94a3b8" font-size="9" text-anchor="middle">Circuit Breaker · 熔断</text>

  <!-- HotSearch Store -->
  <rect x="638" y="555" width="290" height="50" rx="6" fill="#0f172a"/>
  <rect x="638" y="555" width="290" height="50" rx="6" fill="rgba(76,29,149,0.4)" stroke="#a78bfa" stroke-width="1"/>
  <text x="783" y="575" fill="white" font-size="11" font-weight="600" text-anchor="middle">HotSearch Store</text>
  <text x="783" y="593" fill="#94a3b8" font-size="9" text-anchor="middle">JSON File ⇢ Memory (Adapter)</text>

  <!-- ErrorCollector (small) -->
  <rect x="948" y="555" width="115" height="50" rx="6" fill="#0f172a"/>
  <rect x="948" y="555" width="115" height="50" rx="6" fill="rgba(30,41,59,0.5)" stroke="#94a3b8" stroke-width="1"/>
  <text x="1005" y="575" fill="white" font-size="10" font-weight="600" text-anchor="middle">Error</text>
  <text x="1005" y="593" fill="#94a3b8" font-size="9" text-anchor="middle">Collector</text>

  <!-- Cache namespace annotations -->
  <text x="115" y="618" fill="#a78bfa" font-size="7" font-weight="500">TG_SEARCH</text>
  <text x="220" y="618" fill="#a78bfa" font-size="7" font-weight="500">PLUGIN_SEARCH</text>
  <text x="350" y="618" fill="#a78bfa" font-size="7" font-weight="500">HOT_SEARCH</text>

  <!-- Adapter pattern annotation -->
  <rect x="648" y="610" width="140" height="16" rx="3" fill="rgba(120,53,15,0.2)" stroke="#fbbf24" stroke-width="0.6"/>
  <text x="718" y="622" fill="#fbbf24" font-size="7" font-weight="500" text-anchor="middle">Adapter Pattern 适配器模式</text>

  <!-- End of Nuxt region: y=668 -->

  <!-- Arrows: Nuxt Server → External -->
  <!-- TG Service → Telegram -->
  <path d="M 190 512 L 190 535 L 55 535 L 55 735 L 190 735 L 190 720" fill="none" stroke="#34d399" stroke-width="1.5" stroke-opacity="0.6" marker-end="url(#arrow-emerald)"/>
  <!-- Plugin Manager → Plugin Sites -->
  <path d="M 475 512 L 475 530 L 35 530 L 35 742 L 475 742 L 475 720" fill="none" stroke="#34d399" stroke-width="1.5" stroke-opacity="0.6" marker-end="url(#arrow-emerald)"/>
  <!-- Douban → Douban API -->
  <path d="M 970 512 L 970 535 L 1085 535 L 1085 742 L 780 742 L 780 720" fill="none" stroke="#34d399" stroke-width="1.5" stroke-opacity="0.6" marker-end="url(#arrow-emerald)"/>

  <!-- ==================== Layer 7: External Sources ==================== -->
  <!-- Telegram Channels -->
  <rect x="80" y="720" width="270" height="52" rx="6" fill="#0f172a"/>
  <rect x="80" y="720" width="270" height="52" rx="6" fill="rgba(30,41,59,0.5)" stroke="#94a3b8" stroke-width="1.5"/>
  <text x="215" y="742" fill="white" font-size="11" font-weight="600" text-anchor="middle">Telegram Channels</text>
  <text x="215" y="760" fill="#94a3b8" font-size="9" text-anchor="middle">8 优先频道 + ~75 默认频道</text>

  <!-- Plugin Sites -->
  <rect x="385" y="720" width="270" height="52" rx="6" fill="#0f172a"/>
  <rect x="385" y="720" width="270" height="52" rx="6" fill="rgba(30,41,59,0.5)" stroke="#94a3b8" stroke-width="1.5"/>
  <text x="520" y="742" fill="white" font-size="11" font-weight="600" text-anchor="middle">Plugin Sites (~10)</text>
  <text x="520" y="760" fill="#94a3b8" font-size="9" text-anchor="middle">pansearch · qupansou · panta ...</text>

  <!-- Douban API -->
  <rect x="690" y="720" width="190" height="52" rx="6" fill="#0f172a"/>
  <rect x="690" y="720" width="190" height="52" rx="6" fill="rgba(30,41,59,0.5)" stroke="#94a3b8" stroke-width="1.5"/>
  <text x="785" y="742" fill="white" font-size="11" font-weight="600" text-anchor="middle">Douban API</text>
  <text x="785" y="760" fill="#94a3b8" font-size="9" text-anchor="middle">豆瓣热门榜单接口</text>

  <!-- ==================== Layer 8: Deployment ==================== -->
  <rect x="160" y="815" width="800" height="68" rx="12" fill="none" stroke="#fbbf24" stroke-width="1" stroke-dasharray="8,4"/>
  <text x="175" y="831" fill="#fbbf24" font-size="9" font-weight="600">Deployment 部署方案 (Nitro Presets)</text>

  <!-- Cloudflare Workers -->
  <rect x="180" y="840" width="230" height="32" rx="6" fill="#0f172a"/>
  <rect x="180" y="840" width="230" height="32" rx="6" fill="rgba(120,53,15,0.3)" stroke="#fbbf24" stroke-width="1"/>
  <text x="295" y="860" fill="white" font-size="10" font-weight="600" text-anchor="middle">Cloudflare Workers</text>

  <!-- Vercel -->
  <rect x="435" y="840" width="230" height="32" rx="6" fill="#0f172a"/>
  <rect x="435" y="840" width="230" height="32" rx="6" fill="rgba(120,53,15,0.3)" stroke="#fbbf24" stroke-width="1"/>
  <text x="550" y="860" fill="white" font-size="10" font-weight="600" text-anchor="middle">Vercel (Serverless)</text>

  <!-- Docker -->
  <rect x="690" y="840" width="250" height="32" rx="6" fill="#0f172a"/>
  <rect x="690" y="840" width="250" height="32" rx="6" fill="rgba(120,53,15,0.3)" stroke="#fbbf24" stroke-width="1"/>
  <text x="815" y="860" fill="white" font-size="10" font-weight="600" text-anchor="middle">Docker (node:20-alpine)</text>

  <!-- ==================== Data Flow Labels on External Arrows ==================== -->
  <text x="50" y="640" fill="#94a3b8" font-size="7" transform="rotate(-90, 50, 640)">t.me/s/{ch} HTML</text>
  <text x="30" y="640" fill="#94a3b8" font-size="7" transform="rotate(-90, 30, 640)">cheerio parse</text>

  <!-- ==================== Legend ==================== -->
  <rect x="55" y="898" width="1010" height="48" rx="8" fill="rgba(15,23,42,0.8)" stroke="#334155" stroke-width="0.8"/>
  <text x="75" y="918" fill="#94a3b8" font-size="9" font-weight="600">LEGEND:</text>

  <!-- Client -->
  <rect x="140" y="907" width="14" height="14" rx="3" fill="rgba(8,51,68,0.4)" stroke="#22d3ee" stroke-width="1"/>
  <text x="160" y="918" fill="#94a3b8" font-size="8">客户端 Client</text>

  <!-- Server -->
  <rect x="250" y="907" width="14" height="14" rx="3" fill="rgba(6,78,59,0.4)" stroke="#34d399" stroke-width="1"/>
  <text x="270" y="918" fill="#94a3b8" font-size="8">服务端 Server</text>

  <!-- Storage -->
  <rect x="360" y="907" width="14" height="14" rx="3" fill="rgba(76,29,149,0.4)" stroke="#a78bfa" stroke-width="1"/>
  <text x="380" y="918" fill="#94a3b8" font-size="8">缓存/存储 Cache</text>

  <!-- Security -->
  <rect x="475" y="907" width="14" height="14" rx="3" fill="rgba(136,19,55,0.3)" stroke="#fb7185" stroke-width="1"/>
  <text x="495" y="918" fill="#94a3b8" font-size="8">安全/熔断 Security</text>

  <!-- External -->
  <rect x="600" y="907" width="14" height="14" rx="3" fill="rgba(30,41,59,0.5)" stroke="#94a3b8" stroke-width="1"/>
  <text x="620" y="918" fill="#94a3b8" font-size="8">外部服务 External</text>

  <!-- Deploy -->
  <rect x="725" y="907" width="14" height="14" rx="3" fill="rgba(120,53,15,0.3)" stroke="#fbbf24" stroke-width="1"/>
  <text x="745" y="918" fill="#94a3b8" font-size="8">部署 Deploy</text>

  <!-- Arrow legend -->
  <line x1="835" y1="914" x2="865" y2="914" stroke="#34d399" stroke-width="1.5" marker-end="url(#arrow-emerald)"/>
  <text x="875" y="918" fill="#94a3b8" font-size="8">数据流</text>

  <line x1="930" y1="914" x2="960" y2="914" stroke="#fbbf24" stroke-width="1" stroke-dasharray="4,2"/>
  <text x="970" y="918" fill="#94a3b8" font-size="8">标注</text>
</svg>
